<svg id="图层_1" data-name="图层 1" xmlns="http://www.w3.org/2000/svg" viewBox="0 0 746.25 399.32"><defs><style>.cls-1{fill:#1fa362;}</style></defs><path class="cls-1" d="M596.51,758.79l-1.15-.14,2,.27Z" transform="translate(-428.77 -362.85)"/><path class="cls-1" d="M571.81,754.49l.59-40-11.74-14.3-.21-26.79,3.66,2.16,1.87.84a106.07,106.07,0,0,1-25.08-17.66c-1-1-1.94-1.92-2.87-2.89l.83.91-.72,85.64A152.5,152.5,0,0,0,571.81,754.49Z" transform="translate(-428.77 -362.85)"/><path class="cls-1" d="M559,377a4.51,4.51,0,0,1,1.2.6,6.26,6.26,0,0,1,1.08,1c.52.56.83,1,1.25,1.43l1.29,1.47L573,392v56l-2.24,1.12a135.22,135.22,0,0,1,21.27-7.5l-.07,0c-.2-.19-.08-.53,0-1.21l0-1.71s-.84-32.29-.85-32.45l-8.3-10V378c0-.84.07-1.72,0-2.56-.08-1.05-.76-1.85-.74-2.89,0-3.24,5-3.24,5,0a2.24,2.24,0,0,1-.94,1.95l.13,20.93,9.7,10.85c.07,1.46,1.3,29,1.31,29.12s.09,2.1.09,2.17l.06,1.26s0,1.14.07,1.53a161.26,161.26,0,0,1,21.39-3.25l-1,0a6.47,6.47,0,0,0-1,.09l0-1s0-2.66,0-2.68-.07-3.7-.07-3.7q-.27-13.4-.53-26.77l0-1.86c0-.06-.06-3-.06-3l0-1.83c-.07-.41-.17-.71,0-.83h0a2.26,2.26,0,0,1-1-2c0-3.24,5-3.24,5,0a2.27,2.27,0,0,1-.91,1.93c.08.09.09.38.07,1.1,0,.52,0,.92,0,1a12.14,12.14,0,0,0,.06,1.61c.23,2.87.72,33.15.72,33.15s0,1.25,0,2l0,2.16a.68.68,0,0,1,0,.54q8.81-.69,18.28-.51c10-23.59,8-20.55,7.92-45.8h.11a2.23,2.23,0,0,1-1.3-2.16c0-3.24,5-3.24,5,0a2.23,2.23,0,0,1-1.3,2.16h.68c.9,25.34,3.17,21.76-6.58,45.94q3.88.15,7.87.46c28.33,2.47,53.88,12.65,77.64,26.63a.2.2,0,0,1-.08-.08c-.09-.21.2-.44.66-1.11l.74-1.26.56-.94s.81-1.38.84-1.42l7.7-13,.51-.87.57-1c.43-.74.41-.95.57-1s.13,0,.19.08A3.86,3.86,0,0,1,740,441c-.08-5.19,8.08-5.19,8,0a3.7,3.7,0,0,1-3.46,3.85,7.54,7.54,0,0,1-.67,1.1l-.37.64-.46.78c-.82,1.39-9.14,15.43-9.41,15.9l-.42.71-.49.82-.24.4c-.32.53-.3.63-.41.68a.14.14,0,0,1-.11,0Q736,468.35,740,471l23.49-37c-.09-.7-4.16-30.37-4.16-30.4s-.16-1.19-.21-1.5C695,365.9,638,363,638,363s-45.63-2.4-76,12c-1.28.61-2.55,1.23-3.77,1.85C558.59,376.91,558.86,377,559,377Z" transform="translate(-428.77 -362.85)"/><path class="cls-1" d="M733.94,737.18c1-.5,1.95-1,2.92-1.52Z" transform="translate(-428.77 -362.85)"/><path class="cls-1" d="M568.26,677.59l.59.32V678l-.29,18.47,11.07,13.87L579,756q8.07,1.54,15.93,2.64l-.4-42.53-11.11-15.19L583.26,684v0l.66.21.72.25.83.29.45.16.34,15.47,8.17,9.7-.83-22.78,1.58.36A143.78,143.78,0,0,1,568.26,677.59Z" transform="translate(-428.77 -362.85)"/><path class="cls-1" d="M537.6,742.17l-1.45-.74-2.1-1.07C535.22,741,536.41,741.58,537.6,742.17Z" transform="translate(-428.77 -362.85)"/><path class="cls-1" d="M582.75,374.31A2.44,2.44,0,0,0,584,375a2.52,2.52,0,0,0,2-.51A2.78,2.78,0,0,1,582.75,374.31Z" transform="translate(-428.77 -362.85)"/><path class="cls-1" d="M499.86,562.62a152.11,152.11,0,0,1,1.05-15.69c-.07,0-.18-.16-.52-.52A4.25,4.25,0,0,0,500,546l-.79-.79-.66-.66-2.34-2.34-.68-.68-.85-.85L494,540c.15-.07.27-.14.39-.21A2.47,2.47,0,0,1,491,537.5c-.05-3.24,5.05-3.24,5,0a2.74,2.74,0,0,1-.1.73l.1-.23a14.73,14.73,0,0,1,1.44,1c.28.22.22.2.66.57,0,0,.85.7,2.15,1.62l.49.34.41.27.18.13c.2.13.22.13.25.16,3.31-21.59,12.23-47.33,33.89-68.81a115.91,115.91,0,0,1,11.53-10c-.12-.07,0-.36,0-1s0-1.15,0-1.72v-16a2.27,2.27,0,0,1-1-2c0-3.24,5-3.24,5,0a2.36,2.36,0,0,1-2.72,2.41,1.93,1.93,0,0,0,.72.09,2.29,2.29,0,0,0,2-2v16c.1,1.09,0,1.06,0,1.14a.65.65,0,0,1-.09.19A122,122,0,0,1,565,451.89V394l-9.66-10.35a27.85,27.85,0,0,0-2.4-2.57c-.26-.22-.49-.32-.52-.56,0-.09-.18-.22-.39-.38-3,1.66-5,2.86-5,2.86-5,2.86-6.36,4-16.47,10.95-13.4,9.16-13.48,8.73-19.53,13.05a256.74,256.74,0,0,0-21.77,17.83c-36.27,33.4-51.12,75.57-51.12,75.57a168.14,168.14,0,0,0-9.22,62.22Z" transform="translate(-428.77 -362.85)"/><path class="cls-1" d="M594.08,441.09l1-.23a3.1,3.1,0,0,0-.53.07A1.8,1.8,0,0,0,594.08,441.09Z" transform="translate(-428.77 -362.85)"/><path class="cls-1" d="M497.94,586h2.8c.34,0,.49-.08.61,0a132.33,132.33,0,0,1-1.49-18.23l-70.67.6a234.83,234.83,0,0,0,4.24,30.33.09.09,0,0,1,0-.07s.05,0,.19-.16l.17-.15.1-.09L448,586l1.15.11h25.28S485.76,586.09,497.94,586Z" transform="translate(-428.77 -362.85)"/><path class="cls-1" d="M596.65,440.37a1.58,1.58,0,0,0-.54.24l1-.24A1.54,1.54,0,0,0,596.65,440.37Z" transform="translate(-428.77 -362.85)"/><path class="cls-1" d="M743.67,444.88h0a4,4,0,0,1-2.89-1.39,2.57,2.57,0,0,0,.73.83A3.13,3.13,0,0,0,743.67,444.88Z" transform="translate(-428.77 -362.85)"/><path class="cls-1" d="M785.72,443.77l-26.26,40.79c7.72,5.74,15.28,11.71,22.72,17.77a3.18,3.18,0,0,0,.87-.57c.16-.18.23-.26.34-.4l34.29-40.42L813,439l4,3q2.58,10.11,5.15,20.21l-36,43.28s-.11,0-.16-.05c6.07,5,12.06,10,18,15,3.27,2.72,5.89,2.66,9.34.35,15.93-10.65,31.37-22,46.59-33.6,3.79-2.9,3.88-5.05.54-8.29-7.55-7.31-15.49-14.17-23.61-20.81-15.31-12.51-31-26.13-57.33-43.52C781.4,423.74,784,435,785.72,443.77Z" transform="translate(-428.77 -362.85)"/><path class="cls-1" d="M749.94,699.89,767,677q.5-24.5,1-49l3-3.43q-4.92,5-10,9.69-1,19.86-2,39.74l-18,23q.5,17.94,1,35.88c2.77-1.56,5.53-3.16,8.28-4.84Z" transform="translate(-428.77 -362.85)"/><path class="cls-1" d="M1171.41,717.44l.89,2C1172,718.76,1171.71,718.1,1171.41,717.44Z" transform="translate(-428.77 -362.85)"/><path class="cls-1" d="M1158,689.18V705l12.8,11.09Q1164.67,702.59,1158,689.18Z" transform="translate(-428.77 -362.85)"/><path class="cls-1" d="M720,680l13-13V657a6.21,6.21,0,0,0,.57-.49c-22.59,15.87-47.7,27.63-76.13,33.57a114.37,114.37,0,0,1-11.37,1.78h.42l3.62-.47.76,69.19-4.32.32q4.62-.27,9.16-.71-.35-28.09-.71-56.18,2.85-7.31,5.71-14.6L667,688l-7,18,1,53.6a215,215,0,0,0,59.66-16.16Z" transform="translate(-428.77 -362.85)"/><path class="cls-1" d="M1111.12,602.38l2.57,4.53Z" transform="translate(-428.77 -362.85)"/><path class="cls-1" d="M745,472.45c-.13.21-.27.42-.41.63s-.08.14-.16.26a3.11,3.11,0,0,1-.18.29.24.24,0,0,1-.19,0q5.17,3.48,10.25,7.15a.35.35,0,0,1-.07-.2c0-.07,0,0,.5-.78l.28-.44.46-.73s.45-.7.47-.75,22.55-35.53,23.13-36.43q-3-15.56-6-31.1-4.4-2.79-8.76-5.35a6.69,6.69,0,0,0,0,.81c.06.43.06.46.16,1.22,0,.11,3.45,27.64,3.72,29.82l-23,35.2Z" transform="translate(-428.77 -362.85)"/><path class="cls-1" d="M755.34,481.53l.81.59L756,482C755.75,481.81,755.54,481.66,755.34,481.53Z" transform="translate(-428.77 -362.85)"/><path class="cls-1" d="M728.92,463.93a3.39,3.39,0,0,0-.59-.23l1.11.67,0,0A2.81,2.81,0,0,0,728.92,463.93Z" transform="translate(-428.77 -362.85)"/><path class="cls-1" d="M730.27,464.86l1.09.66-.32-.23A5.6,5.6,0,0,0,730.27,464.86Z" transform="translate(-428.77 -362.85)"/><path class="cls-1" d="M731.13,738.59l0-.06-1.79-43.79L747,673c0-7.76,0-18.22,0-26.63q-4.92,4-10,7.67v14l-12,14q.5,29.5,1,59l-4.33,2Q726.44,740.91,731.13,738.59Z" transform="translate(-428.77 -362.85)"/><path class="cls-1" d="M548,462.47l.38-.29c-.09.07-.19.13-.32.24Z" transform="translate(-428.77 -362.85)"/><path class="cls-1" d="M938.52,559.59c.45,0,.76-.41,1.06-.77-5.15,3.72-10.32,7.43-15.67,10.89-5.16,4.31-10.66,8.18-16.08,12.15-7.71,5.66-7.66,5.66-.71,11.83,10.42,8.31,21,16.38,31.75,24.38Z" transform="translate(-428.77 -362.85)"/><path class="cls-1" d="M621,759V692.13a147.55,147.55,0,0,1-22.37-3.62l1.63.4,1.57.37,0,.07.76,26.8v43.4l-.49,0c6.47.74,12.81,1.24,19.06,1.52" transform="translate(-428.77 -362.85)"/><path class="cls-1" d="M634,761.27v0c3.7,0,7.37-.11,11-.29l-.25-69c-3.57.35-7.17.53-10.76.58l-.35,66.72" transform="translate(-428.77 -362.85)"/><path class="cls-1" d="M980.92,649.48l.51-83.32c-6.35-4.44-13.17-9.13-21.18-14.5-2.22-2-7.58-2.78-10.77.08-2.25,1.58-4.48,3.18-6.71,4.78l1.29,65.42-1.93-1.43c12.28,9.16,24.63,18.25,36.81,27.52h0C979.59,648.51,980.25,649,980.92,649.48Z" transform="translate(-428.77 -362.85)"/><path class="cls-1" d="M1154.75,759.79c-.38.16-.77.32-1.17.47C1154,760.11,1154.37,760,1154.75,759.79Z" transform="translate(-428.77 -362.85)"/><path class="cls-1" d="M1153,747l-13-13V700l-30-30.93V600.41c-16.11-28.35-32.38-56.56-47.47-84.79-17.41-30.9-34.33-62.08-51.87-92.91-12.25-17-21.7-53.77-44-57.38-14.32-2.13-25.79,3.05-33.93,15.1C883,451.8,840,552.51,775,620.47L774,679l-17.09,24.47L758.23,723c23.51-15.54,45.88-35.62,67.83-59.91,41.24-45.58,71.4-99.53,103.92-151.38,8.15-13.08,15.76-26.49,24.49-39.2,3.46-5,4.83-4.89,7.75.43,3.75,6.82,7.75,13.5,11.45,20.34L989.78,523H1037v2.5c-.07-4.54,7.07-4.54,7,0s-7.07,4.54-7,0V528H992.49c6.83,12.61,14,25.79,20.56,38h20l12,8,0,.06a1.88,1.88,0,0,1,2,1.94c0,2.59-4,2.59-4,0a2,2,0,0,1,.09-.61L1032,568h-17.87c5.3,9.81,10.21,18.92,14.29,26.52,1,1.81,2.63,4.17-1.61,4-15.73-11.12-26.88-19.27-38.87-27.77l-.39,83.61c15.18,11.15,30.24,22.47,45.34,33.73h0c11.4,8.13,22.59,16.55,33.77,25a3.83,3.83,0,0,1,2.5-4.65c5-1.91,8,6.28,2.93,8a5.24,5.24,0,0,1-.69.2C1082.19,724.8,1093,733,1104,740.85V683.24a2.7,2.7,0,0,1-1-2.24c-.06-3.89,6.06-3.89,6,0a2.7,2.7,0,0,1-2,2.76V743c7.55,5.38,15.19,10.64,23,15.69a27.69,27.69,0,0,0,23,1.79ZM1015,616.5V616h17l14.07,11.26A2,2,0,0,1,1049,629c0,2.59-4,2.59-4,0a2,2,0,0,1,.12-.71L1031,617h-16v-.5a1.5,1.5,0,0,1-3,0A1.5,1.5,0,0,1,1015,616.5Zm-21-10a1.5,1.5,0,0,1,3,0A1.5,1.5,0,0,1,994,606.5Zm1,1.5h1v20l13,15h19v.5a1.5,1.5,0,0,1,3,0,1.5,1.5,0,0,1-3,0v.5h-20l-13-15Zm67,61c0-.06,0-.11,0-.16a2.11,2.11,0,0,0,.52,1.69l-52.59.34-3.24-2.38h55.36c.47-2.07,4-1.9,3.94.51C1066,671.59,1062,671.59,1062,669Z" transform="translate(-428.77 -362.85)"/><path class="cls-1" d="M491.82,616.5a2.83,2.83,0,0,1,0,2,1.15,1.15,0,0,0,.2-.54c0-.09,0-.23,0-.52s0-.41,0-.48A1.24,1.24,0,0,0,491.82,616.5Z" transform="translate(-428.77 -362.85)"/><path class="cls-1" d="M941.27,557.61a4.93,4.93,0,0,0,1.38-1Z" transform="translate(-428.77 -362.85)"/><path class="cls-1" d="M488,659.42l0,.11A4.53,4.53,0,0,1,488,659a4,4,0,0,1,.24-1.43A3.66,3.66,0,0,0,488,659.42Z" transform="translate(-428.77 -362.85)"/><path class="cls-1" d="M433.61,599.56a3.55,3.55,0,0,0-.15-.72l0,0,0,.19c.16.81.32,1.62.49,2.44C433.92,601.09,433.8,600.39,433.61,599.56Z" transform="translate(-428.77 -362.85)"/><path class="cls-1" d="M501.46,542.79a6.46,6.46,0,0,0-.19,1.33C501.34,543.68,501.4,543.23,501.46,542.79Z" transform="translate(-428.77 -362.85)"/><path class="cls-1" d="M492.19,635.49a1.2,1.2,0,0,0-.19.51.72.72,0,0,0,0,.23A2.77,2.77,0,0,1,492.19,635.49Z" transform="translate(-428.77 -362.85)"/><path class="cls-1" d="M1156.64,758.92q-.5.26-1,.48Q1156.13,759.18,1156.64,758.92Z" transform="translate(-428.77 -362.85)"/><path class="cls-1" d="M531,648l.59.67a147.13,147.13,0,0,1-19.93-31.79v0a7.72,7.72,0,0,0,.59,1.36c.2.35.42.66.34.74s-.06,0-.29,0H492.1s-.42.13-.51,0,0-.07,0-.1c-1.18,1.74-4.64,1.28-4.6-1.4s3.34-3.13,4.56-1.47c0,0,0,0,0,0s.09,0,.38,0h19.32a144.33,144.33,0,0,1-8.94-25.13.5.5,0,0,1-.32.13H448l-13.18,11.3-.15.13-.2.16c-.2.18-.2.2-.22.2a212.74,212.74,0,0,0,19.91,55.06l34.95-1.64c2.2-2.1,6.95-1.18,6.89,2.79.06,4.44-5.89,5.07-7.56,1.9a2.25,2.25,0,0,0,.46.81,3.26,3.26,0,0,0,1.16.78L457.51,664l-3.14-5.73c18.06,34.18,45.06,63,77.27,80.8Zm-38.53-10s-.1,0-.27,0H476l-13-11V614.8c0-.24,0-.26,0-.29h0a2.25,2.25,0,0,1-1-2c-.05-3.24,5.05-3.24,5,0a2.25,2.25,0,0,1-1,2h0s0,.07,0,.28,0,.36,0,.55V626l11,9h15.07c.31,0,.34,0,.36,0s0,0,0,0c1.21-1.68,4.61-1.2,4.57,1.45S493.72,639.62,492.47,638Zm22.91,90.73L515,727l-9-31,.14-.1a2.29,2.29,0,0,1-2.14-2.4c-.05-3.24,5.05-3.24,5,0a2.87,2.87,0,0,1-.12.81L519,730l.26,1.51Z" transform="translate(-428.77 -362.85)"/><path class="cls-1" d="M1174.79,725l-1.66-3.75L1156,707l.09-21.65c-13.12-26.19-27.49-52.11-42.09-77.89V666l30,30.93V731l13,13v14.72A33.65,33.65,0,0,0,1174.79,725Z" transform="translate(-428.77 -362.85)"/><path class="cls-1" d="M501,546v.1c.05-.41.1-.82.16-1.23A6.33,6.33,0,0,0,501,546Z" transform="translate(-428.77 -362.85)"/></svg>